<mxfile host="Electron" agent="Mozilla/5.0 (Windows NT 10.0; Win64; x64) AppleWebKit/537.36 (KHTML, like Gecko) draw.io/28.1.2 Chrome/138.0.7204.243 Electron/37.4.0 Safari/537.36" version="28.1.2">
  <diagram name="Page-1" id="MiFiqeztJaLx2lx6PgDN">
    <mxGraphModel dx="1838" dy="882" grid="1" gridSize="10" guides="1" tooltips="1" connect="1" arrows="1" fold="1" page="1" pageScale="1" pageWidth="1100" pageHeight="850" math="0" shadow="0">
      <root>
        <mxCell id="0" />
        <mxCell id="1" parent="0" />
        <mxCell id="BRfsDB_LLm775VY7pcte-1" value="" style="image;html=1;image=img/lib/clip_art/networking/Switch_128x128.png" vertex="1" parent="1">
          <mxGeometry x="160" y="190" width="150" height="80" as="geometry" />
        </mxCell>
        <mxCell id="BRfsDB_LLm775VY7pcte-2" value="" style="image;html=1;image=img/lib/clip_art/networking/Switch_128x128.png" vertex="1" parent="1">
          <mxGeometry x="140" y="450" width="170" height="80" as="geometry" />
        </mxCell>
        <mxCell id="BRfsDB_LLm775VY7pcte-5" value="" style="image;points=[];aspect=fixed;html=1;align=center;shadow=0;dashed=0;image=img/lib/allied_telesis/switch/Switch_24_port_L2_POE.svg;" vertex="1" parent="1">
          <mxGeometry x="710" y="260" width="160.47" height="110" as="geometry" />
        </mxCell>
        <mxCell id="BRfsDB_LLm775VY7pcte-6" value="" style="image;html=1;image=img/lib/clip_art/networking/Wireless_Router_128x128.png" vertex="1" parent="1">
          <mxGeometry x="450" y="380" width="146" height="160" as="geometry" />
        </mxCell>
        <mxCell id="BRfsDB_LLm775VY7pcte-7" value="" style="strokeColor=#666666;html=1;labelPosition=right;align=left;spacingLeft=15;shadow=0;dashed=0;outlineConnect=0;shape=mxgraph.rack.f5.arx_2500;" vertex="1" parent="1">
          <mxGeometry x="560" y="690" width="250" height="60" as="geometry" />
        </mxCell>
        <mxCell id="BRfsDB_LLm775VY7pcte-8" value="" style="image;points=[];aspect=fixed;html=1;align=center;shadow=0;dashed=0;image=img/lib/allied_telesis/wireless/Access_Point_Indoor.svg;" vertex="1" parent="1">
          <mxGeometry x="200" y="650" width="83.73" height="124.91" as="geometry" />
        </mxCell>
        <mxCell id="BRfsDB_LLm775VY7pcte-19" value="&lt;b style=&quot;background-color: rgb(255, 255, 255);&quot;&gt;COM 2 Niveau 2&amp;nbsp;&lt;/b&gt;&lt;div&gt;&lt;b style=&quot;background-color: rgb(255, 255, 255);&quot;&gt;SWT-11&lt;/b&gt;&lt;/div&gt;" style="text;strokeColor=none;align=center;fillColor=none;html=1;verticalAlign=middle;whiteSpace=wrap;rounded=0;" vertex="1" parent="1">
          <mxGeometry x="200" y="210" width="80" height="30" as="geometry" />
        </mxCell>
        <mxCell id="BRfsDB_LLm775VY7pcte-20" value="&lt;b style=&quot;background-color: rgb(255, 255, 255);&quot;&gt;COM 1 Niveau 2&lt;/b&gt;&lt;div&gt;&lt;b style=&quot;background-color: rgb(255, 255, 255);&quot;&gt;SWT-04&lt;/b&gt;&lt;/div&gt;" style="text;strokeColor=none;align=center;fillColor=none;html=1;verticalAlign=middle;whiteSpace=wrap;rounded=0;" vertex="1" parent="1">
          <mxGeometry x="195" y="470" width="60" height="30" as="geometry" />
        </mxCell>
        <mxCell id="BRfsDB_LLm775VY7pcte-21" value="&lt;b style=&quot;background-color: rgb(255, 255, 255);&quot;&gt;COM 3 Niveau 3&lt;/b&gt;&lt;div&gt;&lt;b style=&quot;background-color: rgb(255, 255, 255);&quot;&gt;SW-16&lt;/b&gt;&lt;/div&gt;" style="text;strokeColor=none;align=center;fillColor=none;html=1;verticalAlign=middle;whiteSpace=wrap;rounded=0;" vertex="1" parent="1">
          <mxGeometry x="770" y="300" width="60" height="30" as="geometry" />
        </mxCell>
        <mxCell id="BRfsDB_LLm775VY7pcte-23" value="&lt;font style=&quot;color: rgb(0, 0, 0);&quot;&gt;&lt;b&gt;Routeur&lt;/b&gt;&lt;/font&gt;&lt;div&gt;&lt;font style=&quot;color: rgb(0, 0, 0);&quot;&gt;&lt;b&gt;RTR-21&lt;/b&gt;&lt;/font&gt;&lt;/div&gt;" style="text;strokeColor=#000000;align=center;fillColor=#FFFFFF;html=1;verticalAlign=middle;whiteSpace=wrap;rounded=0;" vertex="1" parent="1">
          <mxGeometry x="513" y="460" width="60" height="30" as="geometry" />
        </mxCell>
        <mxCell id="BRfsDB_LLm775VY7pcte-24" value="&lt;b&gt;&lt;font style=&quot;font-size: 18px;&quot;&gt;FAI 2900&lt;/font&gt;&lt;/b&gt;" style="text;strokeColor=#000000;align=center;fillColor=#FFFFFF;html=1;verticalAlign=middle;whiteSpace=wrap;rounded=0;" vertex="1" parent="1">
          <mxGeometry x="616.5" y="705" width="117" height="30" as="geometry" />
        </mxCell>
        <mxCell id="BRfsDB_LLm775VY7pcte-27" value="&lt;font style=&quot;font-size: 11px;&quot;&gt;&lt;b&gt;CONSOLE ACCES&lt;/b&gt;&lt;/font&gt;&lt;div&gt;&lt;span style=&quot;font-size: 18px;&quot;&gt;&lt;b&gt;AP-4&lt;/b&gt;&lt;/span&gt;&lt;/div&gt;" style="text;strokeColor=none;align=center;fillColor=none;html=1;verticalAlign=middle;whiteSpace=wrap;rounded=0;" vertex="1" parent="1">
          <mxGeometry x="155" y="790" width="140" height="30" as="geometry" />
        </mxCell>
        <mxCell id="BRfsDB_LLm775VY7pcte-29" value="&lt;b&gt;Port 2&lt;/b&gt;" style="text;strokeColor=none;align=center;fillColor=none;html=1;verticalAlign=middle;whiteSpace=wrap;rounded=0;" vertex="1" parent="1">
          <mxGeometry x="300" y="230" width="60" height="30" as="geometry" />
        </mxCell>
        <mxCell id="BRfsDB_LLm775VY7pcte-30" value="&lt;b&gt;Port 1&lt;/b&gt;" style="text;strokeColor=none;align=center;fillColor=none;html=1;verticalAlign=middle;whiteSpace=wrap;rounded=0;" vertex="1" parent="1">
          <mxGeometry x="120" y="230" width="60" height="30" as="geometry" />
        </mxCell>
        <mxCell id="BRfsDB_LLm775VY7pcte-31" value="&lt;b&gt;Port 3&lt;/b&gt;" style="text;strokeColor=none;align=center;fillColor=none;html=1;verticalAlign=middle;whiteSpace=wrap;rounded=0;" vertex="1" parent="1">
          <mxGeometry x="660" y="260" width="60" height="30" as="geometry" />
        </mxCell>
        <mxCell id="BRfsDB_LLm775VY7pcte-32" value="&lt;b&gt;Port 1&lt;/b&gt;" style="text;strokeColor=none;align=center;fillColor=none;html=1;verticalAlign=middle;whiteSpace=wrap;rounded=0;" vertex="1" parent="1">
          <mxGeometry x="90" y="480" width="60" height="30" as="geometry" />
        </mxCell>
        <mxCell id="BRfsDB_LLm775VY7pcte-33" value="&lt;b&gt;Port 2&lt;/b&gt;" style="text;strokeColor=none;align=center;fillColor=none;html=1;verticalAlign=middle;whiteSpace=wrap;rounded=0;" vertex="1" parent="1">
          <mxGeometry x="860" y="340" width="60" height="30" as="geometry" />
        </mxCell>
        <mxCell id="BRfsDB_LLm775VY7pcte-35" value="&lt;b&gt;Port 1&lt;/b&gt;" style="text;strokeColor=none;align=center;fillColor=none;html=1;verticalAlign=middle;whiteSpace=wrap;rounded=0;" vertex="1" parent="1">
          <mxGeometry x="800" y="260" width="60" height="30" as="geometry" />
        </mxCell>
        <mxCell id="BRfsDB_LLm775VY7pcte-36" value="&lt;b&gt;Port 2&lt;/b&gt;" style="text;strokeColor=none;align=center;fillColor=none;html=1;verticalAlign=middle;whiteSpace=wrap;rounded=0;" vertex="1" parent="1">
          <mxGeometry x="270" y="500" width="60" height="30" as="geometry" />
        </mxCell>
        <mxCell id="BRfsDB_LLm775VY7pcte-44" value="" style="endArrow=classic;startArrow=classic;html=1;rounded=0;entryX=0.75;entryY=0;entryDx=0;entryDy=0;exitX=1;exitY=0;exitDx=0;exitDy=0;" edge="1" parent="1" source="BRfsDB_LLm775VY7pcte-32" target="BRfsDB_LLm775VY7pcte-30">
          <mxGeometry width="50" height="50" relative="1" as="geometry">
            <mxPoint x="40" y="420" as="sourcePoint" />
            <mxPoint x="350" y="220" as="targetPoint" />
            <Array as="points">
              <mxPoint x="30" y="480" />
              <mxPoint x="30" y="230" />
            </Array>
          </mxGeometry>
        </mxCell>
        <mxCell id="BRfsDB_LLm775VY7pcte-45" value="" style="endArrow=classic;startArrow=classic;html=1;rounded=0;exitX=0.89;exitY=0.563;exitDx=0;exitDy=0;exitPerimeter=0;entryX=-0.009;entryY=0.278;entryDx=0;entryDy=0;entryPerimeter=0;" edge="1" parent="1" source="BRfsDB_LLm775VY7pcte-6" target="BRfsDB_LLm775VY7pcte-5">
          <mxGeometry width="50" height="50" relative="1" as="geometry">
            <mxPoint x="579.94" y="440.08000000000004" as="sourcePoint" />
            <mxPoint x="580" y="220" as="targetPoint" />
            <Array as="points">
              <mxPoint x="580" y="290" />
            </Array>
          </mxGeometry>
        </mxCell>
        <mxCell id="BRfsDB_LLm775VY7pcte-46" value="" style="endArrow=classic;startArrow=classic;html=1;rounded=0;exitX=1;exitY=0.5;exitDx=0;exitDy=0;entryX=0.875;entryY=0.029;entryDx=0;entryDy=0;entryPerimeter=0;" edge="1" parent="1" source="BRfsDB_LLm775VY7pcte-1" target="BRfsDB_LLm775VY7pcte-5">
          <mxGeometry width="50" height="50" relative="1" as="geometry">
            <mxPoint x="580" y="400" as="sourcePoint" />
            <mxPoint x="850" y="220" as="targetPoint" />
            <Array as="points">
              <mxPoint x="450" y="230" />
              <mxPoint x="450" y="130" />
              <mxPoint x="670" y="130" />
              <mxPoint x="850" y="130" />
              <mxPoint x="850" y="220" />
            </Array>
          </mxGeometry>
        </mxCell>
        <mxCell id="BRfsDB_LLm775VY7pcte-47" value="" style="endArrow=classic;startArrow=classic;html=1;rounded=0;" edge="1" parent="1">
          <mxGeometry width="50" height="50" relative="1" as="geometry">
            <mxPoint x="810" y="730" as="sourcePoint" />
            <mxPoint x="880" y="330" as="targetPoint" />
            <Array as="points">
              <mxPoint x="980" y="730" />
              <mxPoint x="980" y="530" />
              <mxPoint x="980" y="330" />
            </Array>
          </mxGeometry>
        </mxCell>
        <mxCell id="BRfsDB_LLm775VY7pcte-49" value="" style="endArrow=classic;startArrow=classic;html=1;rounded=0;exitX=0.409;exitY=-0.023;exitDx=0;exitDy=0;exitPerimeter=0;entryX=1;entryY=0.5;entryDx=0;entryDy=0;" edge="1" parent="1" source="BRfsDB_LLm775VY7pcte-8" target="BRfsDB_LLm775VY7pcte-2">
          <mxGeometry width="50" height="50" relative="1" as="geometry">
            <mxPoint x="580" y="610" as="sourcePoint" />
            <mxPoint x="360" y="400" as="targetPoint" />
            <Array as="points">
              <mxPoint x="360" y="647" />
              <mxPoint x="360" y="490" />
            </Array>
          </mxGeometry>
        </mxCell>
        <mxCell id="BRfsDB_LLm775VY7pcte-50" value="&lt;b&gt;Port Fa0&lt;/b&gt;" style="text;strokeColor=none;align=center;fillColor=none;html=1;verticalAlign=middle;whiteSpace=wrap;rounded=0;" vertex="1" parent="1">
          <mxGeometry x="590" y="445" width="60" height="30" as="geometry" />
        </mxCell>
        <mxCell id="BRfsDB_LLm775VY7pcte-51" value="&lt;b&gt;Port 0&lt;/b&gt;" style="text;strokeColor=none;align=center;fillColor=none;html=1;verticalAlign=middle;whiteSpace=wrap;rounded=0;" vertex="1" parent="1">
          <mxGeometry x="810" y="697.46" width="60" height="30" as="geometry" />
        </mxCell>
        <mxCell id="BRfsDB_LLm775VY7pcte-52" value="&lt;b&gt;&lt;font style=&quot;font-size: 48px;&quot;&gt;&lt;u&gt;SCHEMA RESEAU&lt;/u&gt;&lt;/font&gt;&lt;/b&gt;" style="text;html=1;align=center;verticalAlign=middle;resizable=0;points=[];autosize=1;strokeColor=none;fillColor=none;" vertex="1" parent="1">
          <mxGeometry x="323" y="10" width="440" height="70" as="geometry" />
        </mxCell>
      </root>
    </mxGraphModel>
  </diagram>
</mxfile>
